<svg xmlns="http://www.w3.org/2000/svg" class="w-full h-full leading-none markmap mm-w9v5sc-1" style=""><style>.markmap{--markmap-max-width: 9999px;--markmap-a-color: #0097e6;--markmap-a-hover-color: #00a8ff;--markmap-code-bg: #f0f0f0;--markmap-code-color: #555;--markmap-highlight-bg: #ffeaa7;--markmap-table-border: 1px solid currentColor;--markmap-font: 300 16px/20px sans-serif;--markmap-circle-open-bg: #fff;--markmap-text-color: #333;--markmap-highlight-node-bg: #ff02;font:var(--markmap-font);color:var(--markmap-text-color)}.markmap-link{fill:none}.markmap-node&gt;circle{cursor:pointer}.markmap-foreign{display:inline-block}.markmap-foreign p{margin:0}.markmap-foreign a{color:var(--markmap-a-color)}.markmap-foreign a:hover{color:var(--markmap-a-hover-color)}.markmap-foreign code{padding:.25em;font-size:calc(1em - 2px);color:var(--markmap-code-color);background-color:var(--markmap-code-bg);border-radius:2px}.markmap-foreign pre{margin:0}.markmap-foreign pre&gt;code{display:block}.markmap-foreign del{text-decoration:line-through}.markmap-foreign em{font-style:italic}.markmap-foreign strong{font-weight:700}.markmap-foreign mark{background:var(--markmap-highlight-bg)}.markmap-foreign table,.markmap-foreign th,.markmap-foreign td{border-collapse:collapse;border:var(--markmap-table-border)}.markmap-foreign img{display:inline-block}.markmap-foreign svg{fill:currentColor}.markmap-foreign&gt;div{width:var(--markmap-max-width);text-align:left}.markmap-foreign&gt;div&gt;div{display:inline-block}.markmap-highlight rect{fill:var(--markmap-highlight-node-bg)}.markmap-dark .markmap{--markmap-code-bg: #1a1b26;--markmap-code-color: #ddd;--markmap-circle-open-bg: #444;--markmap-text-color: #eee}</style><g transform="translate(49.96492769231975,306.72976488268137) scale(0.5221888947436072)"><path class="markmap-link" data-depth="3" data-path="1.2.3" d="M671,-367.687C711,-367.687,711,-394.25,751,-394.25" stroke-width="1.375" stroke="rgb(148, 103, 189)"/><path class="markmap-link" data-depth="3" data-path="1.2.4" d="M671,-367.687C711,-367.687,711,-367.875,751,-367.875" stroke-width="1.375" stroke="rgb(31, 119, 180)"/><path class="markmap-link" data-depth="3" data-path="1.2.5" d="M671,-367.687C711,-367.687,711,-341.5,751,-341.5" stroke-width="1.375" stroke="rgb(255, 127, 14)"/><path class="markmap-link" data-depth="3" data-path="1.6.7" d="M718,-283.562C758,-283.562,758,-310.125,798,-310.125" stroke-width="1.375" stroke="rgb(44, 160, 44)"/><path class="markmap-link" data-depth="3" data-path="1.6.8" d="M718,-283.562C758,-283.562,758,-283.75,798,-283.75" stroke-width="1.375" stroke="rgb(214, 39, 40)"/><path class="markmap-link" data-depth="3" data-path="1.6.9" d="M718,-283.562C758,-283.562,758,-257.375,798,-257.375" stroke-width="1.375" stroke="rgb(148, 103, 189)"/><path class="markmap-link" data-depth="3" data-path="1.10.11" d="M708,-199.437C748,-199.437,748,-226,788,-226" stroke-width="1.375" stroke="rgb(227, 119, 194)"/><path class="markmap-link" data-depth="3" data-path="1.10.12" d="M708,-199.437C748,-199.437,748,-199.625,788,-199.625" stroke-width="1.375" stroke="rgb(127, 127, 127)"/><path class="markmap-link" data-depth="3" data-path="1.10.13" d="M708,-199.437C748,-199.437,748,-173.25,788,-173.25" stroke-width="1.375" stroke="rgb(188, 189, 34)"/><path class="markmap-link" data-depth="3" data-path="1.14.15" d="M583,-115.312C623,-115.312,623,-141.875,663,-141.875" stroke-width="1.375" stroke="rgb(31, 119, 180)"/><path class="markmap-link" data-depth="3" data-path="1.14.16" d="M583,-115.312C623,-115.312,623,-115.5,663,-115.5" stroke-width="1.375" stroke="rgb(255, 127, 14)"/><path class="markmap-link" data-depth="3" data-path="1.14.17" d="M583,-115.312C623,-115.312,623,-89.125,663,-89.125" stroke-width="1.375" stroke="rgb(44, 160, 44)"/><path class="markmap-link" data-depth="3" data-path="1.18.19" d="M724,-31.187C764,-31.187,764,-57.75,804,-57.75" stroke-width="1.375" stroke="rgb(148, 103, 189)"/><path class="markmap-link" data-depth="3" data-path="1.18.20" d="M724,-31.187C764,-31.187,764,-31.375,804,-31.375" stroke-width="1.375" stroke="rgb(140, 86, 75)"/><path class="markmap-link" data-depth="3" data-path="1.18.21" d="M724,-31.187C764,-31.187,764,-5,804,-5" stroke-width="1.375" stroke="rgb(227, 119, 194)"/><path class="markmap-link" data-depth="3" data-path="1.22.23" d="M618,52.938C658,52.938,658,26.375,698,26.375" stroke-width="1.375" stroke="rgb(188, 189, 34)"/><path class="markmap-link" data-depth="3" data-path="1.22.24" d="M618,52.938C658,52.938,658,52.75,698,52.75" stroke-width="1.375" stroke="rgb(23, 190, 207)"/><path class="markmap-link" data-depth="3" data-path="1.22.25" d="M618,52.938C658,52.938,658,79.125,698,79.125" stroke-width="1.375" stroke="rgb(31, 119, 180)"/><path class="markmap-link" data-depth="3" data-path="1.26.27" d="M660,137.063C700,137.063,700,110.5,740,110.5" stroke-width="1.375" stroke="rgb(44, 160, 44)"/><path class="markmap-link" data-depth="3" data-path="1.26.28" d="M660,137.063C700,137.063,700,136.875,740,136.875" stroke-width="1.375" stroke="rgb(214, 39, 40)"/><path class="markmap-link" data-depth="3" data-path="1.26.29" d="M660,137.063C700,137.063,700,163.25,740,163.25" stroke-width="1.375" stroke="rgb(148, 103, 189)"/><path class="markmap-link" data-depth="3" data-path="1.30.31" d="M667,221.188C707,221.188,707,194.625,747,194.625" stroke-width="1.375" stroke="rgb(227, 119, 194)"/><path class="markmap-link" data-depth="3" data-path="1.30.32" d="M667,221.188C707,221.188,707,221,747,221" stroke-width="1.375" stroke="rgb(127, 127, 127)"/><path class="markmap-link" data-depth="3" data-path="1.30.33" d="M667,221.188C707,221.188,707,247.375,747,247.375" stroke-width="1.375" stroke="rgb(188, 189, 34)"/><path class="markmap-link" data-depth="3" data-path="1.34.35" d="M560,305.313C600,305.313,600,278.75,640,278.75" stroke-width="1.375" stroke="rgb(31, 119, 180)"/><path class="markmap-link" data-depth="3" data-path="1.34.36" d="M560,305.313C600,305.313,600,305.125,640,305.125" stroke-width="1.375" stroke="rgb(255, 127, 14)"/><path class="markmap-link" data-depth="3" data-path="1.34.37" d="M560,305.313C600,305.313,600,331.5,640,331.5" stroke-width="1.375" stroke="rgb(44, 160, 44)"/><path class="markmap-link" data-depth="3" data-path="1.38.39" d="M673,389.438C713,389.438,713,362.875,753,362.875" stroke-width="1.375" stroke="rgb(148, 103, 189)"/><path class="markmap-link" data-depth="3" data-path="1.38.40" d="M673,389.438C713,389.438,713,389.25,753,389.25" stroke-width="1.375" stroke="rgb(140, 86, 75)"/><path class="markmap-link" data-depth="3" data-path="1.38.41" d="M673,389.438C713,389.438,713,415.625,753,415.625" stroke-width="1.375" stroke="rgb(227, 119, 194)"/><path class="markmap-link" data-depth="2" data-path="1.2" d="M325,11.25C365,11.25,365,-367.687,405,-367.687" stroke-width="1.75" stroke="rgb(255, 127, 14)"/><path class="markmap-link" data-depth="2" data-path="1.6" d="M325,11.25C365,11.25,365,-283.562,405,-283.562" stroke-width="1.75" stroke="rgb(255, 127, 14)"/><path class="markmap-link" data-depth="2" data-path="1.10" d="M325,11.25C365,11.25,365,-199.437,405,-199.437" stroke-width="1.75" stroke="rgb(140, 86, 75)"/><path class="markmap-link" data-depth="2" data-path="1.14" d="M325,11.25C365,11.25,365,-115.312,405,-115.312" stroke-width="1.75" stroke="rgb(23, 190, 207)"/><path class="markmap-link" data-depth="2" data-path="1.18" d="M325,11.25C365,11.25,365,-31.187,405,-31.187" stroke-width="1.75" stroke="rgb(214, 39, 40)"/><path class="markmap-link" data-depth="2" data-path="1.22" d="M325,11.25C365,11.25,365,52.938,405,52.938" stroke-width="1.75" stroke="rgb(127, 127, 127)"/><path class="markmap-link" data-depth="2" data-path="1.26" d="M325,11.25C365,11.25,365,137.063,405,137.063" stroke-width="1.75" stroke="rgb(255, 127, 14)"/><path class="markmap-link" data-depth="2" data-path="1.30" d="M325,11.25C365,11.25,365,221.188,405,221.188" stroke-width="1.75" stroke="rgb(140, 86, 75)"/><path class="markmap-link" data-depth="2" data-path="1.34" d="M325,11.25C365,11.25,365,305.313,405,305.313" stroke-width="1.75" stroke="rgb(23, 190, 207)"/><path class="markmap-link" data-depth="2" data-path="1.38" d="M325,11.25C365,11.25,365,389.438,405,389.438" stroke-width="1.75" stroke="rgb(214, 39, 40)"/><g class="markmap-highlight"/><g data-depth="3" data-path="1.2.3" class="markmap-node" transform="translate(751, -414.9375)"><line stroke="#9467bd" stroke-width="1.375" x1="-1" x2="365" y1="20.6875" y2="20.6875"/><foreignObject class="markmap-foreign" x="8" y="0" style="opacity: 1;" width="347" height="20"><div xmlns="http://www.w3.org/1999/xhtml"><div xmlns="http://www.w3.org/1999/xhtml">Desdolarização via CIPS (alternativa ao SWIFT).</div></div></foreignObject></g><g data-depth="3" data-path="1.2.4" class="markmap-node" transform="translate(751, -388.5625)"><line stroke="#1f77b4" stroke-width="1.375" x1="-1" x2="471" y1="20.6875" y2="20.6875"/><foreignObject class="markmap-foreign" x="8" y="0" style="opacity: 1;" width="453" height="20"><div xmlns="http://www.w3.org/1999/xhtml"><div xmlns="http://www.w3.org/1999/xhtml">Tensões com EUA: possíveis sanções ou restrições comerciais.</div></div></foreignObject></g><g data-depth="3" data-path="1.2.5" class="markmap-node" transform="translate(751, -362.1875)"><line stroke="#ff7f0e" stroke-width="1.375" x1="-1" x2="280" y1="20.6875" y2="20.6875"/><foreignObject class="markmap-foreign" x="8" y="0" style="opacity: 1;" width="262" height="20"><div xmlns="http://www.w3.org/1999/xhtml"><div xmlns="http://www.w3.org/1999/xhtml">Alinhamento antiocidental percebido.</div></div></foreignObject></g><g data-depth="2" data-path="1.2" class="markmap-node" transform="translate(405, -388.5625)"><line stroke="#ff7f0e" stroke-width="1.75" x1="-1" x2="268" y1="20.875" y2="20.875"/><circle stroke-width="1.5" r="6" stroke="#ff7f0e" fill="var(--markmap-circle-open-bg)" cx="266" cy="20.875"/><foreignObject class="markmap-foreign" x="8" y="0" style="opacity: 1;" width="250" height="20"><div xmlns="http://www.w3.org/1999/xhtml"><div xmlns="http://www.w3.org/1999/xhtml">1. Riscos Geopolíticos e Soberania</div></div></foreignObject></g><g data-depth="3" data-path="1.6.7" class="markmap-node" transform="translate(798, -330.8125)"><line stroke="#2ca02c" stroke-width="1.375" x1="-1" x2="392" y1="20.6875" y2="20.6875"/><foreignObject class="markmap-foreign" x="8" y="0" style="opacity: 1;" width="374" height="20"><div xmlns="http://www.w3.org/1999/xhtml"><div xmlns="http://www.w3.org/1999/xhtml">Parceria com fintech Left para emissão e integração.</div></div></foreignObject></g><g data-depth="3" data-path="1.6.8" class="markmap-node" transform="translate(798, -304.4375)"><line stroke="#d62728" stroke-width="1.375" x1="-1" x2="234" y1="20.6875" y2="20.6875"/><foreignObject class="markmap-foreign" x="8" y="0" style="opacity: 1;" width="216" height="20"><div xmlns="http://www.w3.org/1999/xhtml"><div xmlns="http://www.w3.org/1999/xhtml">Influência na soberania digital.</div></div></foreignObject></g><g data-depth="3" data-path="1.6.9" class="markmap-node" transform="translate(798, -278.0625)"><line stroke="#9467bd" stroke-width="1.375" x1="-1" x2="404" y1="20.6875" y2="20.6875"/><foreignObject class="markmap-foreign" x="8" y="0" style="opacity: 1;" width="386" height="20"><div xmlns="http://www.w3.org/1999/xhtml"><div xmlns="http://www.w3.org/1999/xhtml">Preocupações com cibersegurança e coleta de dados.</div></div></foreignObject></g><g data-depth="2" data-path="1.6" class="markmap-node" transform="translate(405, -304.4375)"><line stroke="#ff7f0e" stroke-width="1.75" x1="-1" x2="315" y1="20.875" y2="20.875"/><circle stroke-width="1.5" r="6" stroke="#ff7f0e" fill="var(--markmap-circle-open-bg)" cx="313" cy="20.875"/><foreignObject class="markmap-foreign" x="8" y="0" style="opacity: 1;" width="297" height="20"><div xmlns="http://www.w3.org/1999/xhtml"><div xmlns="http://www.w3.org/1999/xhtml">2. Dependência de Infraestrutura Chinesa</div></div></foreignObject></g><g data-depth="3" data-path="1.10.11" class="markmap-node" transform="translate(788, -246.6875)"><line stroke="#e377c2" stroke-width="1.375" x1="-1" x2="406" y1="20.6875" y2="20.6875"/><foreignObject class="markmap-foreign" x="8" y="0" style="opacity: 1;" width="388" height="20"><div xmlns="http://www.w3.org/1999/xhtml"><div xmlns="http://www.w3.org/1999/xhtml">Desafio a Visa e Mastercard (40% do mercado global).</div></div></foreignObject></g><g data-depth="3" data-path="1.10.12" class="markmap-node" transform="translate(788, -220.3125)"><line stroke="#7f7f7f" stroke-width="1.375" x1="-1" x2="336" y1="20.6875" y2="20.6875"/><foreignObject class="markmap-foreign" x="8" y="0" style="opacity: 1;" width="318" height="20"><div xmlns="http://www.w3.org/1999/xhtml"><div xmlns="http://www.w3.org/1999/xhtml">Benefícios: redução de taxas e mais opções.</div></div></foreignObject></g><g data-depth="3" data-path="1.10.13" class="markmap-node" transform="translate(788, -193.9375)"><line stroke="#bcbd22" stroke-width="1.375" x1="-1" x2="382" y1="20.6875" y2="20.6875"/><foreignObject class="markmap-foreign" x="8" y="0" style="opacity: 1;" width="364" height="20"><div xmlns="http://www.w3.org/1999/xhtml"><div xmlns="http://www.w3.org/1999/xhtml">Riscos: desestabilização do mercado e retaliações.</div></div></foreignObject></g><g data-depth="2" data-path="1.10" class="markmap-node" transform="translate(405, -220.3125)"><line stroke="#8c564b" stroke-width="1.75" x1="-1" x2="305" y1="20.875" y2="20.875"/><circle stroke-width="1.5" r="6" stroke="#8c564b" fill="var(--markmap-circle-open-bg)" cx="303" cy="20.875"/><foreignObject class="markmap-foreign" x="8" y="0" style="opacity: 1;" width="287" height="20"><div xmlns="http://www.w3.org/1999/xhtml"><div xmlns="http://www.w3.org/1999/xhtml">3. Impactos Econômicos e Concorrência</div></div></foreignObject></g><g data-depth="3" data-path="1.14.15" class="markmap-node" transform="translate(663, -162.5625)"><line stroke="#1f77b4" stroke-width="1.375" x1="-1" x2="453" y1="20.6875" y2="20.6875"/><foreignObject class="markmap-foreign" x="8" y="0" style="opacity: 1;" width="435" height="20"><div xmlns="http://www.w3.org/1999/xhtml"><div xmlns="http://www.w3.org/1999/xhtml">Adaptação de sistemas (maquininhas, bancos, e-commerce).</div></div></foreignObject></g><g data-depth="3" data-path="1.14.16" class="markmap-node" transform="translate(663, -136.1875)"><line stroke="#ff7f0e" stroke-width="1.375" x1="-1" x2="320" y1="20.6875" y2="20.6875"/><foreignObject class="markmap-foreign" x="8" y="0" style="opacity: 1;" width="302" height="20"><div xmlns="http://www.w3.org/1999/xhtml"><div xmlns="http://www.w3.org/1999/xhtml">Dificuldades para pequenos comerciantes.</div></div></foreignObject></g><g data-depth="3" data-path="1.14.17" class="markmap-node" transform="translate(663, -109.8125)"><line stroke="#2ca02c" stroke-width="1.375" x1="-1" x2="217" y1="20.6875" y2="20.6875"/><foreignObject class="markmap-foreign" x="8" y="0" style="opacity: 1;" width="199" height="20"><div xmlns="http://www.w3.org/1999/xhtml"><div xmlns="http://www.w3.org/1999/xhtml">Desigualdades no mercado.</div></div></foreignObject></g><g data-depth="2" data-path="1.14" class="markmap-node" transform="translate(405, -136.1875)"><line stroke="#17becf" stroke-width="1.75" x1="-1" x2="180" y1="20.875" y2="20.875"/><circle stroke-width="1.5" r="6" stroke="#17becf" fill="var(--markmap-circle-open-bg)" cx="178" cy="20.875"/><foreignObject class="markmap-foreign" x="8" y="0" style="opacity: 1;" width="162" height="20"><div xmlns="http://www.w3.org/1999/xhtml"><div xmlns="http://www.w3.org/1999/xhtml">4. Custo de Integração</div></div></foreignObject></g><g data-depth="3" data-path="1.18.19" class="markmap-node" transform="translate(804, -78.4375)"><line stroke="#9467bd" stroke-width="1.375" x1="-1" x2="266" y1="20.6875" y2="20.6875"/><foreignObject class="markmap-foreign" x="8" y="0" style="opacity: 1;" width="248" height="20"><div xmlns="http://www.w3.org/1999/xhtml"><div xmlns="http://www.w3.org/1999/xhtml">Licenciamento pelo Banco Central.</div></div></foreignObject></g><g data-depth="3" data-path="1.18.20" class="markmap-node" transform="translate(804, -52.0625)"><line stroke="#8c564b" stroke-width="1.375" x1="-1" x2="234" y1="20.6875" y2="20.6875"/><foreignObject class="markmap-foreign" x="8" y="0" style="opacity: 1;" width="216" height="20"><div xmlns="http://www.w3.org/1999/xhtml"><div xmlns="http://www.w3.org/1999/xhtml">Instabilidade se houver falhas.</div></div></foreignObject></g><g data-depth="3" data-path="1.18.21" class="markmap-node" transform="translate(804, -25.6875)"><line stroke="#e377c2" stroke-width="1.375" x1="-1" x2="303" y1="20.6875" y2="20.6875"/><foreignObject class="markmap-foreign" x="8" y="0" style="opacity: 1;" width="285" height="20"><div xmlns="http://www.w3.org/1999/xhtml"><div xmlns="http://www.w3.org/1999/xhtml">Vulnerabilidades na integração com Pix.</div></div></foreignObject></g><g data-depth="2" data-path="1.18" class="markmap-node" transform="translate(405, -52.0625)"><line stroke="#d62728" stroke-width="1.75" x1="-1" x2="321" y1="20.875" y2="20.875"/><circle stroke-width="1.5" r="6" stroke="#d62728" fill="var(--markmap-circle-open-bg)" cx="319" cy="20.875"/><foreignObject class="markmap-foreign" x="8" y="0" style="opacity: 1;" width="303" height="20"><div xmlns="http://www.w3.org/1999/xhtml"><div xmlns="http://www.w3.org/1999/xhtml">5. Riscos Operacionais e Regulamentação</div></div></foreignObject></g><g data-depth="3" data-path="1.22.23" class="markmap-node" transform="translate(698, 5.6875)"><line stroke="#bcbd22" stroke-width="1.375" x1="-1" x2="536" y1="20.6875" y2="20.6875"/><foreignObject class="markmap-foreign" x="8" y="0" style="opacity: 1;" width="518" height="20"><div xmlns="http://www.w3.org/1999/xhtml"><div xmlns="http://www.w3.org/1999/xhtml">60% dos estabelecimentos já aceitam (parcerias com Rede, Stone, Itaú).</div></div></foreignObject></g><g data-depth="3" data-path="1.22.24" class="markmap-node" transform="translate(698, 32.0625)"><line stroke="#17becf" stroke-width="1.375" x1="-1" x2="298" y1="20.6875" y2="20.6875"/><foreignObject class="markmap-foreign" x="8" y="0" style="opacity: 1;" width="280" height="20"><div xmlns="http://www.w3.org/1999/xhtml"><div xmlns="http://www.w3.org/1999/xhtml">Resistência de lojistas e consumidores.</div></div></foreignObject></g><g data-depth="3" data-path="1.22.25" class="markmap-node" transform="translate(698, 58.4375)"><line stroke="#1f77b4" stroke-width="1.375" x1="-1" x2="317" y1="20.6875" y2="20.6875"/><foreignObject class="markmap-foreign" x="8" y="0" style="opacity: 1;" width="299" height="20"><div xmlns="http://www.w3.org/1999/xhtml"><div xmlns="http://www.w3.org/1999/xhtml">Fricções se taxas não forem competitivas.</div></div></foreignObject></g><g data-depth="2" data-path="1.22" class="markmap-node" transform="translate(405, 32.0625)"><line stroke="#7f7f7f" stroke-width="1.75" x1="-1" x2="215" y1="20.875" y2="20.875"/><circle stroke-width="1.5" r="6" stroke="#7f7f7f" fill="var(--markmap-circle-open-bg)" cx="213" cy="20.875"/><foreignObject class="markmap-foreign" x="8" y="0" style="opacity: 1;" width="197" height="20"><div xmlns="http://www.w3.org/1999/xhtml"><div xmlns="http://www.w3.org/1999/xhtml">6. Aceitação Limitada Inicial</div></div></foreignObject></g><g data-depth="3" data-path="1.26.27" class="markmap-node" transform="translate(740, 89.8125)"><line stroke="#2ca02c" stroke-width="1.375" x1="-1" x2="436" y1="20.6875" y2="20.6875"/><foreignObject class="markmap-foreign" x="8" y="0" style="opacity: 1;" width="418" height="20"><div xmlns="http://www.w3.org/1999/xhtml"><div xmlns="http://www.w3.org/1999/xhtml">Visão de "guerra híbrida" para anular sanções americanas.</div></div></foreignObject></g><g data-depth="3" data-path="1.26.28" class="markmap-node" transform="translate(740, 116.1875)"><line stroke="#d62728" stroke-width="1.375" x1="-1" x2="345" y1="20.6875" y2="20.6875"/><foreignObject class="markmap-foreign" x="8" y="0" style="opacity: 1;" width="327" height="20"><div xmlns="http://www.w3.org/1999/xhtml"><div xmlns="http://www.w3.org/1999/xhtml">Preocupações estratégicas não corroboradas.</div></div></foreignObject></g><g data-depth="3" data-path="1.26.29" class="markmap-node" transform="translate(740, 142.5625)"><line stroke="#9467bd" stroke-width="1.375" x1="-1" x2="258" y1="20.6875" y2="20.6875"/><foreignObject class="markmap-foreign" x="8" y="0" style="opacity: 1;" width="240" height="20"><div xmlns="http://www.w3.org/1999/xhtml"><div xmlns="http://www.w3.org/1999/xhtml">Expansão chinesa como ameaça.</div></div></foreignObject></g><g data-depth="2" data-path="1.26" class="markmap-node" transform="translate(405, 116.1875)"><line stroke="#ff7f0e" stroke-width="1.75" x1="-1" x2="257" y1="20.875" y2="20.875"/><circle stroke-width="1.5" r="6" stroke="#ff7f0e" fill="var(--markmap-circle-open-bg)" cx="255" cy="20.875"/><foreignObject class="markmap-foreign" x="8" y="0" style="opacity: 1;" width="239" height="20"><div xmlns="http://www.w3.org/1999/xhtml"><div xmlns="http://www.w3.org/1999/xhtml">7. Guerra Híbrida e Lei Magnitsky</div></div></foreignObject></g><g data-depth="3" data-path="1.30.31" class="markmap-node" transform="translate(747, 173.9375)"><line stroke="#e377c2" stroke-width="1.375" x1="-1" x2="431" y1="20.6875" y2="20.6875"/><foreignObject class="markmap-foreign" x="8" y="0" style="opacity: 1;" width="413" height="20"><div xmlns="http://www.w3.org/1999/xhtml"><div xmlns="http://www.w3.org/1999/xhtml">Redistribuição de receitas para causas sociais (ex.: MST).</div></div></foreignObject></g><g data-depth="3" data-path="1.30.32" class="markmap-node" transform="translate(747, 200.3125)"><line stroke="#7f7f7f" stroke-width="1.375" x1="-1" x2="440" y1="20.6875" y2="20.6875"/><foreignObject class="markmap-foreign" x="8" y="0" style="opacity: 1;" width="422" height="20"><div xmlns="http://www.w3.org/1999/xhtml"><div xmlns="http://www.w3.org/1999/xhtml">Positivo para alguns; resistência de setores conservadores.</div></div></foreignObject></g><g data-depth="3" data-path="1.30.33" class="markmap-node" transform="translate(747, 226.6875)"><line stroke="#bcbd22" stroke-width="1.375" x1="-1" x2="308" y1="20.6875" y2="20.6875"/><foreignObject class="markmap-foreign" x="8" y="0" style="opacity: 1;" width="290" height="20"><div xmlns="http://www.w3.org/1999/xhtml"><div xmlns="http://www.w3.org/1999/xhtml">Questões de politização e transparência.</div></div></foreignObject></g><g data-depth="2" data-path="1.30" class="markmap-node" transform="translate(405, 200.3125)"><line stroke="#8c564b" stroke-width="1.75" x1="-1" x2="264" y1="20.875" y2="20.875"/><circle stroke-width="1.5" r="6" stroke="#8c564b" fill="var(--markmap-circle-open-bg)" cx="262" cy="20.875"/><foreignObject class="markmap-foreign" x="8" y="0" style="opacity: 1;" width="246" height="20"><div xmlns="http://www.w3.org/1999/xhtml"><div xmlns="http://www.w3.org/1999/xhtml">8. Modelo da Left e Impacto Social</div></div></foreignObject></g><g data-depth="3" data-path="1.34.35" class="markmap-node" transform="translate(640, 258.0625)"><line stroke="#1f77b4" stroke-width="1.375" x1="-1" x2="272" y1="20.6875" y2="20.6875"/><foreignObject class="markmap-foreign" x="8" y="0" style="opacity: 1;" width="254" height="20"><div xmlns="http://www.w3.org/1999/xhtml"><div xmlns="http://www.w3.org/1999/xhtml">Exemplos históricos (Macau, 2014).</div></div></foreignObject></g><g data-depth="3" data-path="1.34.36" class="markmap-node" transform="translate(640, 284.4375)"><line stroke="#ff7f0e" stroke-width="1.375" x1="-1" x2="271" y1="20.6875" y2="20.6875"/><foreignObject class="markmap-foreign" x="8" y="0" style="opacity: 1;" width="253" height="20"><div xmlns="http://www.w3.org/1999/xhtml"><div xmlns="http://www.w3.org/1999/xhtml">Possibilidade de transações ilícitas.</div></div></foreignObject></g><g data-depth="3" data-path="1.34.37" class="markmap-node" transform="translate(640, 310.8125)"><line stroke="#2ca02c" stroke-width="1.375" x1="-1" x2="287" y1="20.6875" y2="20.6875"/><foreignObject class="markmap-foreign" x="8" y="0" style="opacity: 1;" width="269" height="20"><div xmlns="http://www.w3.org/1999/xhtml"><div xmlns="http://www.w3.org/1999/xhtml">Necessidade de vigilância regulatória.</div></div></foreignObject></g><g data-depth="2" data-path="1.34" class="markmap-node" transform="translate(405, 284.4375)"><line stroke="#17becf" stroke-width="1.75" x1="-1" x2="157" y1="20.875" y2="20.875"/><circle stroke-width="1.5" r="6" stroke="#17becf" fill="var(--markmap-circle-open-bg)" cx="155" cy="20.875"/><foreignObject class="markmap-foreign" x="8" y="0" style="opacity: 1;" width="139" height="20"><div xmlns="http://www.w3.org/1999/xhtml"><div xmlns="http://www.w3.org/1999/xhtml">9. Fuga de Capitais</div></div></foreignObject></g><g data-depth="3" data-path="1.38.39" class="markmap-node" transform="translate(753, 342.1875)"><line stroke="#9467bd" stroke-width="1.375" x1="-1" x2="374" y1="20.6875" y2="20.6875"/><foreignObject class="markmap-foreign" x="8" y="0" style="opacity: 1;" width="356" height="20"><div xmlns="http://www.w3.org/1999/xhtml"><div xmlns="http://www.w3.org/1999/xhtml">Controle estatal chinês (Banco Popular da China).</div></div></foreignObject></g><g data-depth="3" data-path="1.38.40" class="markmap-node" transform="translate(753, 368.5625)"><line stroke="#8c564b" stroke-width="1.375" x1="-1" x2="393" y1="20.6875" y2="20.6875"/><foreignObject class="markmap-foreign" x="8" y="0" style="opacity: 1;" width="375" height="20"><div xmlns="http://www.w3.org/1999/xhtml"><div xmlns="http://www.w3.org/1999/xhtml">Preocupações com privacidade de dados brasileiros.</div></div></foreignObject></g><g data-depth="3" data-path="1.38.41" class="markmap-node" transform="translate(753, 394.9375)"><line stroke="#e377c2" stroke-width="1.375" x1="-1" x2="233" y1="20.6875" y2="20.6875"/><foreignObject class="markmap-foreign" x="8" y="0" style="opacity: 1;" width="215" height="20"><div xmlns="http://www.w3.org/1999/xhtml"><div xmlns="http://www.w3.org/1999/xhtml">Disputas tecnológicas globais.</div></div></foreignObject></g><g data-depth="2" data-path="1.38" class="markmap-node" transform="translate(405, 368.5625)"><line stroke="#d62728" stroke-width="1.75" x1="-1" x2="270" y1="20.875" y2="20.875"/><circle stroke-width="1.5" r="6" stroke="#d62728" fill="var(--markmap-circle-open-bg)" cx="268" cy="20.875"/><foreignObject class="markmap-foreign" x="8" y="0" style="opacity: 1;" width="252" height="20"><div xmlns="http://www.w3.org/1999/xhtml"><div xmlns="http://www.w3.org/1999/xhtml">10. Cibersegurança: EUA vs. China</div></div></foreignObject></g><g data-depth="1" data-path="1" class="markmap-node" transform="translate(0,-10)"><line stroke="#1f77b4" stroke-width="2.5" x1="-1" x2="327" y1="21.25" y2="21.25"/><circle stroke-width="1.5" r="6" stroke="#1f77b4" fill="var(--markmap-circle-open-bg)" cx="325" cy="21.25"/><foreignObject class="markmap-foreign" x="8" y="0" style="opacity: 1;" width="309" height="20"><div xmlns="http://www.w3.org/1999/xhtml"><div xmlns="http://www.w3.org/1999/xhtml">Perigos da Chegada da UnionPay no Brasil</div></div></foreignObject></g></g></svg>